<mxfile host="app.diagrams.net" modified="2020-11-20T15:53:57.892Z" agent="5.0 (Windows NT 10.0; Win64; x64) AppleWebKit/537.36 (KHTML, like Gecko) Chrome/87.0.4280.66 Safari/537.36" etag="2cN1xcFf6dnQ5ipKHqTa" version="13.10.0" type="github">
  <diagram id="4gQbS4W9_8-ZN7xqgv6y" name="Page-1">
    <mxGraphModel dx="1240" dy="657" grid="0" gridSize="10" guides="1" tooltips="1" connect="1" arrows="1" fold="1" page="1" pageScale="1" pageWidth="1654" pageHeight="1169" background="#FFFFFF" math="0" shadow="0">
      <root>
        <mxCell id="0" />
        <mxCell id="1" parent="0" />
        <mxCell id="Uuez6IhvMw8X9QOHhNS7-61" style="edgeStyle=orthogonalEdgeStyle;rounded=0;orthogonalLoop=1;jettySize=auto;html=1;exitX=0.506;exitY=1.015;exitDx=0;exitDy=0;endArrow=none;endFill=0;endSize=33;startArrow=diamondThin;startFill=1;startSize=33;exitPerimeter=0;entryX=0;entryY=0.5;entryDx=0;entryDy=0;" parent="1" target="wbR98xaUtxmODcnnqOfq-20" edge="1">
          <mxGeometry relative="1" as="geometry">
            <mxPoint x="352.0000000000001" y="602.6999999999998" as="sourcePoint" />
            <mxPoint x="830.16" y="939.31" as="targetPoint" />
            <Array as="points">
              <mxPoint x="352" y="965" />
            </Array>
          </mxGeometry>
        </mxCell>
        <mxCell id="wbR98xaUtxmODcnnqOfq-1" style="edgeStyle=orthogonalEdgeStyle;rounded=0;orthogonalLoop=1;jettySize=auto;html=1;exitX=0.5;exitY=0;exitDx=0;exitDy=0;endArrow=block;endFill=0;endSize=10;" parent="1" source="wbR98xaUtxmODcnnqOfq-11" edge="1">
          <mxGeometry relative="1" as="geometry">
            <mxPoint x="942" y="430" as="targetPoint" />
          </mxGeometry>
        </mxCell>
        <mxCell id="wbR98xaUtxmODcnnqOfq-2" value="{Overlapping, complete}" style="text;html=1;strokeColor=none;fillColor=none;align=center;verticalAlign=middle;whiteSpace=wrap;rounded=0;" parent="1" vertex="1">
          <mxGeometry x="785" y="454" width="150" height="20" as="geometry" />
        </mxCell>
        <mxCell id="wbR98xaUtxmODcnnqOfq-3" value="Person" style="swimlane;fontStyle=0;childLayout=stackLayout;horizontal=1;startSize=26;horizontalStack=0;resizeParent=1;resizeParentMax=0;resizeLast=0;collapsible=1;marginBottom=0;strokeWidth=2;swimlaneFillColor=#ffffff;" parent="1" vertex="1">
          <mxGeometry x="872" y="197" width="140" height="234" as="geometry" />
        </mxCell>
        <mxCell id="wbR98xaUtxmODcnnqOfq-4" value="id" style="text;align=left;verticalAlign=top;spacingLeft=4;spacingRight=4;overflow=hidden;rotatable=0;points=[[0,0.5],[1,0.5]];portConstraint=eastwest;" parent="wbR98xaUtxmODcnnqOfq-3" vertex="1">
          <mxGeometry y="26" width="140" height="26" as="geometry" />
        </mxCell>
        <mxCell id="wbR98xaUtxmODcnnqOfq-5" value="name" style="text;align=left;verticalAlign=top;spacingLeft=4;spacingRight=4;overflow=hidden;rotatable=0;points=[[0,0.5],[1,0.5]];portConstraint=eastwest;" parent="wbR98xaUtxmODcnnqOfq-3" vertex="1">
          <mxGeometry y="52" width="140" height="26" as="geometry" />
        </mxCell>
        <mxCell id="wbR98xaUtxmODcnnqOfq-6" value="tax_id" style="text;align=left;verticalAlign=top;spacingLeft=4;spacingRight=4;overflow=hidden;rotatable=0;points=[[0,0.5],[1,0.5]];portConstraint=eastwest;" parent="wbR98xaUtxmODcnnqOfq-3" vertex="1">
          <mxGeometry y="78" width="140" height="26" as="geometry" />
        </mxCell>
        <mxCell id="wbR98xaUtxmODcnnqOfq-7" value="address" style="text;align=left;verticalAlign=top;spacingLeft=4;spacingRight=4;overflow=hidden;rotatable=0;points=[[0,0.5],[1,0.5]];portConstraint=eastwest;" parent="wbR98xaUtxmODcnnqOfq-3" vertex="1">
          <mxGeometry y="104" width="140" height="26" as="geometry" />
        </mxCell>
        <mxCell id="DZsutp3Jp5KQCfpiCqnF-3" value="city" style="text;align=left;verticalAlign=top;spacingLeft=4;spacingRight=4;overflow=hidden;rotatable=0;points=[[0,0.5],[1,0.5]];portConstraint=eastwest;" parent="wbR98xaUtxmODcnnqOfq-3" vertex="1">
          <mxGeometry y="130" width="140" height="26" as="geometry" />
        </mxCell>
        <mxCell id="DZsutp3Jp5KQCfpiCqnF-2" value="zip_code" style="text;align=left;verticalAlign=top;spacingLeft=4;spacingRight=4;overflow=hidden;rotatable=0;points=[[0,0.5],[1,0.5]];portConstraint=eastwest;" parent="wbR98xaUtxmODcnnqOfq-3" vertex="1">
          <mxGeometry y="156" width="140" height="26" as="geometry" />
        </mxCell>
        <mxCell id="wbR98xaUtxmODcnnqOfq-8" value="phone_number" style="text;align=left;verticalAlign=top;spacingLeft=4;spacingRight=4;overflow=hidden;rotatable=0;points=[[0,0.5],[1,0.5]];portConstraint=eastwest;" parent="wbR98xaUtxmODcnnqOfq-3" vertex="1">
          <mxGeometry y="182" width="140" height="26" as="geometry" />
        </mxCell>
        <mxCell id="wbR98xaUtxmODcnnqOfq-50" value="tag" style="text;align=left;verticalAlign=top;spacingLeft=4;spacingRight=4;overflow=hidden;rotatable=0;points=[[0,0.5],[1,0.5]];portConstraint=eastwest;" parent="wbR98xaUtxmODcnnqOfq-3" vertex="1">
          <mxGeometry y="208" width="140" height="26" as="geometry" />
        </mxCell>
        <mxCell id="wbR98xaUtxmODcnnqOfq-9" style="edgeStyle=orthogonalEdgeStyle;rounded=0;orthogonalLoop=1;jettySize=auto;html=1;exitX=0.5;exitY=0;exitDx=0;exitDy=0;endArrow=block;endFill=0;endSize=10;" parent="1" source="wbR98xaUtxmODcnnqOfq-17" edge="1">
          <mxGeometry relative="1" as="geometry">
            <mxPoint x="942" y="430" as="targetPoint" />
          </mxGeometry>
        </mxCell>
        <mxCell id="wbR98xaUtxmODcnnqOfq-11" value="Student" style="swimlane;fontStyle=0;childLayout=stackLayout;horizontal=1;startSize=26;horizontalStack=0;resizeParent=1;resizeParentMax=0;resizeLast=0;collapsible=1;marginBottom=0;strokeWidth=2;swimlaneFillColor=#ffffff;" parent="1" vertex="1">
          <mxGeometry x="594" y="524" width="140" height="52" as="geometry" />
        </mxCell>
        <mxCell id="wbR98xaUtxmODcnnqOfq-12" value="institutional_email" style="text;align=left;verticalAlign=top;spacingLeft=4;spacingRight=4;overflow=hidden;rotatable=0;points=[[0,0.5],[1,0.5]];portConstraint=eastwest;" parent="wbR98xaUtxmODcnnqOfq-11" vertex="1">
          <mxGeometry y="26" width="140" height="26" as="geometry" />
        </mxCell>
        <mxCell id="wbR98xaUtxmODcnnqOfq-13" style="edgeStyle=orthogonalEdgeStyle;rounded=0;orthogonalLoop=1;jettySize=auto;html=1;exitX=0.5;exitY=0;exitDx=0;exitDy=0;endArrow=block;endFill=0;endSize=10;" parent="1" source="wbR98xaUtxmODcnnqOfq-14" edge="1">
          <mxGeometry relative="1" as="geometry">
            <mxPoint x="942" y="430" as="targetPoint" />
          </mxGeometry>
        </mxCell>
        <mxCell id="Uuez6IhvMw8X9QOHhNS7-57" style="edgeStyle=none;rounded=0;orthogonalLoop=1;jettySize=auto;html=1;exitX=0.5;exitY=1;exitDx=0;exitDy=0;entryX=0.5;entryY=0;entryDx=0;entryDy=0;endArrow=none;endFill=0;endSize=33;" parent="1" source="wbR98xaUtxmODcnnqOfq-14" target="wbR98xaUtxmODcnnqOfq-21" edge="1">
          <mxGeometry relative="1" as="geometry" />
        </mxCell>
        <mxCell id="DZsutp3Jp5KQCfpiCqnF-14" style="edgeStyle=orthogonalEdgeStyle;rounded=0;orthogonalLoop=1;jettySize=auto;html=1;exitX=0;exitY=0.25;exitDx=0;exitDy=0;entryX=0.863;entryY=0.972;entryDx=0;entryDy=0;entryPerimeter=0;endArrow=none;endFill=0;" parent="1" source="wbR98xaUtxmODcnnqOfq-14" target="DZsutp3Jp5KQCfpiCqnF-10" edge="1">
          <mxGeometry relative="1" as="geometry" />
        </mxCell>
        <mxCell id="wbR98xaUtxmODcnnqOfq-14" value="Professor" style="swimlane;fontStyle=0;childLayout=stackLayout;horizontal=1;startSize=26;horizontalStack=0;resizeParent=1;resizeParentMax=0;resizeLast=0;collapsible=1;marginBottom=0;strokeWidth=2;swimlaneFillColor=#ffffff;" parent="1" vertex="1">
          <mxGeometry x="872" y="521" width="140" height="78" as="geometry" />
        </mxCell>
        <mxCell id="wbR98xaUtxmODcnnqOfq-15" value="institutional_email" style="text;align=left;verticalAlign=top;spacingLeft=4;spacingRight=4;overflow=hidden;rotatable=0;points=[[0,0.5],[1,0.5]];portConstraint=eastwest;" parent="wbR98xaUtxmODcnnqOfq-14" vertex="1">
          <mxGeometry y="26" width="140" height="26" as="geometry" />
        </mxCell>
        <mxCell id="wbR98xaUtxmODcnnqOfq-16" value="classification" style="text;align=left;verticalAlign=top;spacingLeft=4;spacingRight=4;overflow=hidden;rotatable=0;points=[[0,0.5],[1,0.5]];portConstraint=eastwest;" parent="wbR98xaUtxmODcnnqOfq-14" vertex="1">
          <mxGeometry y="52" width="140" height="26" as="geometry" />
        </mxCell>
        <mxCell id="wbR98xaUtxmODcnnqOfq-17" value="Janitor" style="swimlane;fontStyle=0;childLayout=stackLayout;horizontal=1;startSize=26;horizontalStack=0;resizeParent=1;resizeParentMax=0;resizeLast=0;collapsible=1;marginBottom=0;strokeWidth=2;swimlaneFillColor=#ffffff;" parent="1" vertex="1">
          <mxGeometry x="1102" y="521" width="140" height="52" as="geometry" />
        </mxCell>
        <mxCell id="wbR98xaUtxmODcnnqOfq-18" value="Course" style="swimlane;fontStyle=0;childLayout=stackLayout;horizontal=1;startSize=26;horizontalStack=0;resizeParent=1;resizeParentMax=0;resizeLast=0;collapsible=1;marginBottom=0;strokeWidth=2;swimlaneFillColor=#ffffff;" parent="1" vertex="1">
          <mxGeometry x="548" y="926" width="140" height="78" as="geometry" />
        </mxCell>
        <mxCell id="wbR98xaUtxmODcnnqOfq-20" value="name" style="text;align=left;verticalAlign=top;spacingLeft=4;spacingRight=4;overflow=hidden;rotatable=0;points=[[0,0.5],[1,0.5]];portConstraint=eastwest;" parent="wbR98xaUtxmODcnnqOfq-18" vertex="1">
          <mxGeometry y="26" width="140" height="26" as="geometry" />
        </mxCell>
        <mxCell id="wbR98xaUtxmODcnnqOfq-19" value="acronym" style="text;align=left;verticalAlign=top;spacingLeft=4;spacingRight=4;overflow=hidden;rotatable=0;points=[[0,0.5],[1,0.5]];portConstraint=eastwest;" parent="wbR98xaUtxmODcnnqOfq-18" vertex="1">
          <mxGeometry y="52" width="140" height="26" as="geometry" />
        </mxCell>
        <mxCell id="Uuez6IhvMw8X9QOHhNS7-31" style="rounded=0;orthogonalLoop=1;jettySize=auto;html=1;endArrow=none;endFill=0;endSize=33;entryX=0.076;entryY=0.995;entryDx=0;entryDy=0;entryPerimeter=0;exitX=0.373;exitY=0.001;exitDx=0;exitDy=0;exitPerimeter=0;" parent="1" source="wbR98xaUtxmODcnnqOfq-18" target="wbR98xaUtxmODcnnqOfq-12" edge="1">
          <mxGeometry relative="1" as="geometry">
            <mxPoint x="557" y="897" as="sourcePoint" />
            <mxPoint x="602.4000000000001" y="589.0039999999999" as="targetPoint" />
          </mxGeometry>
        </mxCell>
        <mxCell id="Uuez6IhvMw8X9QOHhNS7-51" style="rounded=0;orthogonalLoop=1;jettySize=auto;html=1;exitX=0;exitY=0.5;exitDx=0;exitDy=0;entryX=0.5;entryY=0;entryDx=0;entryDy=0;endArrow=diamondThin;endFill=1;endSize=33;" parent="1" source="wbR98xaUtxmODcnnqOfq-21" target="wbR98xaUtxmODcnnqOfq-18" edge="1">
          <mxGeometry relative="1" as="geometry">
            <mxPoint x="872.5600000000002" y="757.2079999999999" as="sourcePoint" />
            <Array as="points">
              <mxPoint x="677" y="718" />
            </Array>
          </mxGeometry>
        </mxCell>
        <mxCell id="wbR98xaUtxmODcnnqOfq-21" value="Class" style="swimlane;fontStyle=0;childLayout=stackLayout;horizontal=1;startSize=26;horizontalStack=0;resizeParent=1;resizeParentMax=0;resizeLast=0;collapsible=1;marginBottom=0;strokeWidth=2;swimlaneFillColor=#ffffff;" parent="1" vertex="1">
          <mxGeometry x="872" y="679" width="140" height="78" as="geometry" />
        </mxCell>
        <mxCell id="yVs6eVd_se5hJnFkdwFp-25" value="number" style="text;align=left;verticalAlign=top;spacingLeft=4;spacingRight=4;overflow=hidden;rotatable=0;points=[[0,0.5],[1,0.5]];portConstraint=eastwest;" vertex="1" parent="wbR98xaUtxmODcnnqOfq-21">
          <mxGeometry y="26" width="140" height="26" as="geometry" />
        </mxCell>
        <mxCell id="yVs6eVd_se5hJnFkdwFp-26" value="/course_acronym" style="text;align=left;verticalAlign=top;spacingLeft=4;spacingRight=4;overflow=hidden;rotatable=0;points=[[0,0.5],[1,0.5]];portConstraint=eastwest;" vertex="1" parent="wbR98xaUtxmODcnnqOfq-21">
          <mxGeometry y="52" width="140" height="26" as="geometry" />
        </mxCell>
        <mxCell id="wbR98xaUtxmODcnnqOfq-28" style="edgeStyle=none;rounded=0;orthogonalLoop=1;jettySize=auto;html=1;exitX=0.5;exitY=0;exitDx=0;exitDy=0;entryX=0.5;entryY=1;entryDx=0;entryDy=0;endArrow=none;endFill=0;fontSize=14;" parent="1" source="wbR98xaUtxmODcnnqOfq-29" target="wbR98xaUtxmODcnnqOfq-17" edge="1">
          <mxGeometry relative="1" as="geometry" />
        </mxCell>
        <mxCell id="wbR98xaUtxmODcnnqOfq-29" value="Classroom" style="swimlane;fontStyle=0;childLayout=stackLayout;horizontal=1;startSize=26;horizontalStack=0;resizeParent=1;resizeParentMax=0;resizeLast=0;collapsible=1;marginBottom=0;strokeWidth=2;swimlaneFillColor=#ffffff;" parent="1" vertex="1">
          <mxGeometry x="1102" y="832" width="140" height="52" as="geometry" />
        </mxCell>
        <mxCell id="wbR98xaUtxmODcnnqOfq-30" value="number" style="text;align=left;verticalAlign=top;spacingLeft=4;spacingRight=4;overflow=hidden;rotatable=0;points=[[0,0.5],[1,0.5]];portConstraint=eastwest;" parent="wbR98xaUtxmODcnnqOfq-29" vertex="1">
          <mxGeometry y="26" width="140" height="26" as="geometry" />
        </mxCell>
        <mxCell id="wbR98xaUtxmODcnnqOfq-31" value="1" style="text;html=1;strokeColor=none;fillColor=none;align=center;verticalAlign=middle;whiteSpace=wrap;rounded=0;fontSize=14;" parent="1" vertex="1">
          <mxGeometry x="1154" y="573" width="20" height="20" as="geometry" />
        </mxCell>
        <mxCell id="wbR98xaUtxmODcnnqOfq-32" value="*" style="text;html=1;strokeColor=none;fillColor=none;align=center;verticalAlign=middle;whiteSpace=wrap;rounded=0;fontSize=14;" parent="1" vertex="1">
          <mxGeometry x="1153" y="798" width="20" height="20" as="geometry" />
        </mxCell>
        <mxCell id="yVs6eVd_se5hJnFkdwFp-16" style="edgeStyle=none;rounded=0;orthogonalLoop=1;jettySize=auto;html=1;exitX=0;exitY=0;exitDx=0;exitDy=0;entryX=0.5;entryY=0;entryDx=0;entryDy=0;endArrow=none;endFill=0;" edge="1" parent="1" target="yVs6eVd_se5hJnFkdwFp-14">
          <mxGeometry relative="1" as="geometry">
            <mxPoint x="942" y="757" as="sourcePoint" />
          </mxGeometry>
        </mxCell>
        <mxCell id="wbR98xaUtxmODcnnqOfq-38" value="Occurence" style="swimlane;fontStyle=0;childLayout=stackLayout;horizontal=1;startSize=26;horizontalStack=0;resizeParent=1;resizeParentMax=0;resizeLast=0;collapsible=1;marginBottom=0;strokeWidth=2;swimlaneFillColor=#ffffff;" parent="1" vertex="1">
          <mxGeometry x="709" y="807" width="140" height="130" as="geometry" />
        </mxCell>
        <mxCell id="wbR98xaUtxmODcnnqOfq-39" value="id" style="text;align=left;verticalAlign=top;spacingLeft=4;spacingRight=4;overflow=hidden;rotatable=0;points=[[0,0.5],[1,0.5]];portConstraint=eastwest;backgroundOutline=0;perimeterSpacing=4;" parent="wbR98xaUtxmODcnnqOfq-38" vertex="1">
          <mxGeometry y="26" width="140" height="26" as="geometry" />
        </mxCell>
        <mxCell id="wbR98xaUtxmODcnnqOfq-40" value="date" style="text;align=left;verticalAlign=top;spacingLeft=4;spacingRight=4;overflow=hidden;rotatable=0;points=[[0,0.5],[1,0.5]];portConstraint=eastwest;backgroundOutline=0;perimeterSpacing=4;" parent="wbR98xaUtxmODcnnqOfq-38" vertex="1">
          <mxGeometry y="52" width="140" height="26" as="geometry" />
        </mxCell>
        <mxCell id="Uuez6IhvMw8X9QOHhNS7-3" value="end_time" style="text;align=left;verticalAlign=top;spacingLeft=4;spacingRight=4;overflow=hidden;rotatable=0;points=[[0,0.5],[1,0.5]];portConstraint=eastwest;backgroundOutline=0;perimeterSpacing=4;" parent="wbR98xaUtxmODcnnqOfq-38" vertex="1">
          <mxGeometry y="78" width="140" height="26" as="geometry" />
        </mxCell>
        <mxCell id="wbR98xaUtxmODcnnqOfq-41" value="start_time" style="text;align=left;verticalAlign=top;spacingLeft=4;spacingRight=4;overflow=hidden;rotatable=0;points=[[0,0.5],[1,0.5]];portConstraint=eastwest;backgroundOutline=0;perimeterSpacing=4;" parent="wbR98xaUtxmODcnnqOfq-38" vertex="1">
          <mxGeometry y="104" width="140" height="26" as="geometry" />
        </mxCell>
        <mxCell id="wbR98xaUtxmODcnnqOfq-47" value="Attendance" style="swimlane;fontStyle=0;childLayout=stackLayout;horizontal=1;startSize=26;horizontalStack=0;resizeParent=1;resizeParentMax=0;resizeLast=0;collapsible=1;marginBottom=0;strokeWidth=2;swimlaneFillColor=#ffffff;" parent="1" vertex="1">
          <mxGeometry x="738" y="618" width="140" height="52" as="geometry" />
        </mxCell>
        <mxCell id="wbR98xaUtxmODcnnqOfq-48" value="present?" style="text;align=left;verticalAlign=top;spacingLeft=4;spacingRight=4;overflow=hidden;rotatable=0;points=[[0,0.5],[1,0.5]];portConstraint=eastwest;" parent="wbR98xaUtxmODcnnqOfq-47" vertex="1">
          <mxGeometry y="26" width="140" height="26" as="geometry" />
        </mxCell>
        <mxCell id="Uuez6IhvMw8X9QOHhNS7-7" value="{ Tag can be equal to NULL, yellow or red, meaning repectevely that the&amp;nbsp;person has not been in contact with anyone sick; has been in contact with a sick person and is confirmed sick themselves. }" style="text;html=1;strokeColor=none;fillColor=none;align=center;verticalAlign=middle;whiteSpace=wrap;rounded=0;" parent="1" vertex="1">
          <mxGeometry x="1029" y="371" width="235" height="51" as="geometry" />
        </mxCell>
        <mxCell id="Uuez6IhvMw8X9QOHhNS7-32" value="" style="endArrow=none;dashed=1;html=1;exitX=1;exitY=0.5;exitDx=0;exitDy=0;" parent="1" source="wbR98xaUtxmODcnnqOfq-24" edge="1">
          <mxGeometry width="50" height="50" relative="1" as="geometry">
            <mxPoint x="563" y="771" as="sourcePoint" />
            <mxPoint x="603" y="721" as="targetPoint" />
          </mxGeometry>
        </mxCell>
        <mxCell id="Uuez6IhvMw8X9QOHhNS7-35" value="*" style="text;html=1;strokeColor=none;fillColor=none;align=center;verticalAlign=middle;whiteSpace=wrap;rounded=0;fontSize=14;" parent="1" vertex="1">
          <mxGeometry x="676" y="583" width="4" height="10" as="geometry" />
        </mxCell>
        <mxCell id="Uuez6IhvMw8X9QOHhNS7-39" style="edgeStyle=orthogonalEdgeStyle;rounded=0;orthogonalLoop=1;jettySize=auto;html=1;endArrow=none;endFill=0;entryX=1.003;entryY=0.331;entryDx=0;entryDy=0;entryPerimeter=0;" parent="1" target="Uuez6IhvMw8X9QOHhNS7-46" edge="1">
          <mxGeometry relative="1" as="geometry">
            <mxPoint x="594" y="550" as="sourcePoint" />
            <mxPoint x="526" y="550" as="targetPoint" />
            <Array as="points">
              <mxPoint x="463" y="550" />
            </Array>
          </mxGeometry>
        </mxCell>
        <mxCell id="Uuez6IhvMw8X9QOHhNS7-40" value="Degree_type" style="swimlane;fontStyle=0;childLayout=stackLayout;horizontal=1;startSize=26;horizontalStack=0;resizeParent=1;resizeParentMax=0;resizeLast=0;collapsible=1;marginBottom=0;strokeWidth=2;swimlaneFillColor=#ffffff;" parent="1" vertex="1">
          <mxGeometry x="280" y="399" width="140" height="78" as="geometry" />
        </mxCell>
        <mxCell id="Uuez6IhvMw8X9QOHhNS7-41" value="code" style="text;align=left;verticalAlign=top;spacingLeft=4;spacingRight=4;overflow=hidden;rotatable=0;points=[[0,0.5],[1,0.5]];portConstraint=eastwest;" parent="Uuez6IhvMw8X9QOHhNS7-40" vertex="1">
          <mxGeometry y="26" width="140" height="26" as="geometry" />
        </mxCell>
        <mxCell id="Uuez6IhvMw8X9QOHhNS7-42" value="name" style="text;align=left;verticalAlign=top;spacingLeft=4;spacingRight=4;overflow=hidden;rotatable=0;points=[[0,0.5],[1,0.5]];portConstraint=eastwest;" parent="Uuez6IhvMw8X9QOHhNS7-40" vertex="1">
          <mxGeometry y="52" width="140" height="26" as="geometry" />
        </mxCell>
        <mxCell id="Uuez6IhvMw8X9QOHhNS7-43" value="*" style="text;html=1;strokeColor=none;fillColor=none;align=center;verticalAlign=middle;whiteSpace=wrap;rounded=0;fontSize=14;" parent="1" vertex="1">
          <mxGeometry x="582" y="535" width="4" height="10" as="geometry" />
        </mxCell>
        <mxCell id="Uuez6IhvMw8X9QOHhNS7-44" value="1" style="text;html=1;strokeColor=none;fillColor=none;align=center;verticalAlign=middle;whiteSpace=wrap;rounded=0;fontSize=14;" parent="1" vertex="1">
          <mxGeometry x="424.5" y="559" width="15" height="10" as="geometry" />
        </mxCell>
        <mxCell id="Uuez6IhvMw8X9QOHhNS7-45" style="rounded=0;orthogonalLoop=1;jettySize=auto;html=1;exitX=0.5;exitY=0;exitDx=0;exitDy=0;endArrow=none;endFill=0;" parent="1" source="Uuez6IhvMw8X9QOHhNS7-46" edge="1">
          <mxGeometry relative="1" as="geometry">
            <mxPoint x="350" y="475" as="targetPoint" />
          </mxGeometry>
        </mxCell>
        <mxCell id="Uuez6IhvMw8X9QOHhNS7-46" value="Degree" style="swimlane;fontStyle=0;childLayout=stackLayout;horizontal=1;startSize=26;horizontalStack=0;resizeParent=1;resizeParentMax=0;resizeLast=0;collapsible=1;marginBottom=0;strokeWidth=2;swimlaneFillColor=#ffffff;" parent="1" vertex="1">
          <mxGeometry x="280" y="525" width="140" height="78" as="geometry" />
        </mxCell>
        <mxCell id="Uuez6IhvMw8X9QOHhNS7-47" value="acronym" style="text;align=left;verticalAlign=top;spacingLeft=4;spacingRight=4;overflow=hidden;rotatable=0;points=[[0,0.5],[1,0.5]];portConstraint=eastwest;" parent="Uuez6IhvMw8X9QOHhNS7-46" vertex="1">
          <mxGeometry y="26" width="140" height="26" as="geometry" />
        </mxCell>
        <mxCell id="Uuez6IhvMw8X9QOHhNS7-48" value="name" style="text;align=left;verticalAlign=top;spacingLeft=4;spacingRight=4;overflow=hidden;rotatable=0;points=[[0,0.5],[1,0.5]];portConstraint=eastwest;" parent="Uuez6IhvMw8X9QOHhNS7-46" vertex="1">
          <mxGeometry y="52" width="140" height="26" as="geometry" />
        </mxCell>
        <mxCell id="Uuez6IhvMw8X9QOHhNS7-49" value="1" style="text;html=1;strokeColor=none;fillColor=none;align=center;verticalAlign=middle;whiteSpace=wrap;rounded=0;fontSize=14;" parent="1" vertex="1">
          <mxGeometry x="359" y="483" width="4" height="10" as="geometry" />
        </mxCell>
        <mxCell id="Uuez6IhvMw8X9QOHhNS7-50" value="*" style="text;html=1;strokeColor=none;fillColor=none;align=center;verticalAlign=middle;whiteSpace=wrap;rounded=0;fontSize=14;" parent="1" vertex="1">
          <mxGeometry x="359" y="511" width="4" height="10" as="geometry" />
        </mxCell>
        <mxCell id="Uuez6IhvMw8X9QOHhNS7-58" value="1..*" style="text;html=1;strokeColor=none;fillColor=none;align=center;verticalAlign=middle;whiteSpace=wrap;rounded=0;fontSize=14;" parent="1" vertex="1">
          <mxGeometry x="945" y="605" width="20" height="20" as="geometry" />
        </mxCell>
        <mxCell id="Uuez6IhvMw8X9QOHhNS7-59" value="*" style="text;html=1;strokeColor=none;fillColor=none;align=center;verticalAlign=middle;whiteSpace=wrap;rounded=0;fontSize=14;" parent="1" vertex="1">
          <mxGeometry x="945" y="655" width="20" height="20" as="geometry" />
        </mxCell>
        <mxCell id="wbR98xaUtxmODcnnqOfq-24" value="Enrolled" style="swimlane;fontStyle=0;childLayout=stackLayout;horizontal=1;startSize=26;horizontalStack=0;resizeParent=1;resizeParentMax=0;resizeLast=0;collapsible=1;marginBottom=0;strokeWidth=2;swimlaneFillColor=#ffffff;" parent="1" vertex="1">
          <mxGeometry x="402" y="696" width="140" height="52" as="geometry" />
        </mxCell>
        <mxCell id="yVs6eVd_se5hJnFkdwFp-7" value="/classnumber" style="text;align=left;verticalAlign=top;spacingLeft=4;spacingRight=4;overflow=hidden;rotatable=0;points=[[0,0.5],[1,0.5]];portConstraint=eastwest;backgroundOutline=0;perimeterSpacing=4;" vertex="1" parent="wbR98xaUtxmODcnnqOfq-24">
          <mxGeometry y="26" width="140" height="26" as="geometry" />
        </mxCell>
        <mxCell id="arxxfK9mkDhvpgq9GGbK-1" value="*" style="text;html=1;strokeColor=none;fillColor=none;align=center;verticalAlign=middle;whiteSpace=wrap;rounded=0;fontSize=14;" parent="1" vertex="1">
          <mxGeometry x="538" y="973" width="4" height="10" as="geometry" />
        </mxCell>
        <mxCell id="DZsutp3Jp5KQCfpiCqnF-1" value="id = NOT NULL and UNIQUE" style="text;html=1;strokeColor=none;fillColor=none;align=center;verticalAlign=middle;whiteSpace=wrap;rounded=0;" parent="1" vertex="1">
          <mxGeometry x="424.5" y="412" width="97" height="20" as="geometry" />
        </mxCell>
        <mxCell id="DZsutp3Jp5KQCfpiCqnF-4" value="id = NOT NULL and UNIQUE" style="text;html=1;strokeColor=none;fillColor=none;align=center;verticalAlign=middle;whiteSpace=wrap;rounded=0;" parent="1" vertex="1">
          <mxGeometry x="1027" y="246" width="97" height="20" as="geometry" />
        </mxCell>
        <mxCell id="DZsutp3Jp5KQCfpiCqnF-13" style="edgeStyle=orthogonalEdgeStyle;rounded=0;orthogonalLoop=1;jettySize=auto;html=1;exitX=0.5;exitY=1;exitDx=0;exitDy=0;entryX=0.75;entryY=0;entryDx=0;entryDy=0;endArrow=none;endFill=0;" parent="1" source="DZsutp3Jp5KQCfpiCqnF-5" target="wbR98xaUtxmODcnnqOfq-11" edge="1">
          <mxGeometry relative="1" as="geometry">
            <Array as="points">
              <mxPoint x="646" y="392" />
              <mxPoint x="646" y="524" />
            </Array>
          </mxGeometry>
        </mxCell>
        <mxCell id="DZsutp3Jp5KQCfpiCqnF-22" style="edgeStyle=orthogonalEdgeStyle;rounded=0;orthogonalLoop=1;jettySize=auto;html=1;exitX=0.5;exitY=0;exitDx=0;exitDy=0;entryX=1;entryY=0.5;entryDx=0;entryDy=0;endArrow=none;endFill=0;startArrow=diamondThin;startFill=1;startSize=33;" parent="1" source="DZsutp3Jp5KQCfpiCqnF-5" target="wbR98xaUtxmODcnnqOfq-29" edge="1">
          <mxGeometry relative="1" as="geometry">
            <Array as="points">
              <mxPoint x="699" y="166" />
              <mxPoint x="1294" y="166" />
              <mxPoint x="1294" y="847" />
            </Array>
          </mxGeometry>
        </mxCell>
        <mxCell id="DZsutp3Jp5KQCfpiCqnF-27" style="rounded=0;orthogonalLoop=1;jettySize=auto;html=1;exitX=-0.002;exitY=1.172;exitDx=0;exitDy=0;entryX=1;entryY=0;entryDx=0;entryDy=0;startArrow=diamondThin;startFill=1;startSize=33;endArrow=none;endFill=0;exitPerimeter=0;" parent="1" source="DZsutp3Jp5KQCfpiCqnF-8" target="Uuez6IhvMw8X9QOHhNS7-46" edge="1">
          <mxGeometry relative="1" as="geometry" />
        </mxCell>
        <mxCell id="DZsutp3Jp5KQCfpiCqnF-5" value="Faculty" style="swimlane;fontStyle=0;childLayout=stackLayout;horizontal=1;startSize=26;horizontalStack=0;resizeParent=1;resizeParentMax=0;resizeLast=0;collapsible=1;marginBottom=0;strokeWidth=2;swimlaneFillColor=#ffffff;" parent="1" vertex="1">
          <mxGeometry x="629" y="236" width="140" height="156" as="geometry" />
        </mxCell>
        <mxCell id="DZsutp3Jp5KQCfpiCqnF-6" value="id" style="text;align=left;verticalAlign=top;spacingLeft=4;spacingRight=4;overflow=hidden;rotatable=0;points=[[0,0.5],[1,0.5]];portConstraint=eastwest;" parent="DZsutp3Jp5KQCfpiCqnF-5" vertex="1">
          <mxGeometry y="26" width="140" height="26" as="geometry" />
        </mxCell>
        <mxCell id="DZsutp3Jp5KQCfpiCqnF-7" value="name" style="text;align=left;verticalAlign=top;spacingLeft=4;spacingRight=4;overflow=hidden;rotatable=0;points=[[0,0.5],[1,0.5]];portConstraint=eastwest;" parent="DZsutp3Jp5KQCfpiCqnF-5" vertex="1">
          <mxGeometry y="52" width="140" height="26" as="geometry" />
        </mxCell>
        <mxCell id="DZsutp3Jp5KQCfpiCqnF-9" value="address" style="text;align=left;verticalAlign=top;spacingLeft=4;spacingRight=4;overflow=hidden;rotatable=0;points=[[0,0.5],[1,0.5]];portConstraint=eastwest;" parent="DZsutp3Jp5KQCfpiCqnF-5" vertex="1">
          <mxGeometry y="78" width="140" height="26" as="geometry" />
        </mxCell>
        <mxCell id="DZsutp3Jp5KQCfpiCqnF-8" value="city" style="text;align=left;verticalAlign=top;spacingLeft=4;spacingRight=4;overflow=hidden;rotatable=0;points=[[0,0.5],[1,0.5]];portConstraint=eastwest;" parent="DZsutp3Jp5KQCfpiCqnF-5" vertex="1">
          <mxGeometry y="104" width="140" height="26" as="geometry" />
        </mxCell>
        <mxCell id="DZsutp3Jp5KQCfpiCqnF-10" value="zip_code" style="text;align=left;verticalAlign=top;spacingLeft=4;spacingRight=4;overflow=hidden;rotatable=0;points=[[0,0.5],[1,0.5]];portConstraint=eastwest;" parent="DZsutp3Jp5KQCfpiCqnF-5" vertex="1">
          <mxGeometry y="130" width="140" height="26" as="geometry" />
        </mxCell>
        <mxCell id="DZsutp3Jp5KQCfpiCqnF-11" value="acronym = NOT NULL and UNIQUE" style="text;html=1;strokeColor=none;fillColor=none;align=center;verticalAlign=middle;whiteSpace=wrap;rounded=0;" parent="1" vertex="1">
          <mxGeometry x="566" y="1020" width="110" height="20" as="geometry" />
        </mxCell>
        <mxCell id="DZsutp3Jp5KQCfpiCqnF-12" value="The number of a class can be repetead, but the number + course_acronym combination is UNIQUE" style="text;html=1;strokeColor=none;fillColor=none;align=center;verticalAlign=middle;whiteSpace=wrap;rounded=0;" parent="1" vertex="1">
          <mxGeometry x="1017" y="695" width="89" height="64" as="geometry" />
        </mxCell>
        <mxCell id="DZsutp3Jp5KQCfpiCqnF-15" value="*" style="text;html=1;strokeColor=none;fillColor=none;align=center;verticalAlign=middle;whiteSpace=wrap;rounded=0;fontSize=14;" parent="1" vertex="1">
          <mxGeometry x="861" y="525" width="4" height="10" as="geometry" />
        </mxCell>
        <mxCell id="DZsutp3Jp5KQCfpiCqnF-19" value="1" style="text;html=1;strokeColor=none;fillColor=none;align=center;verticalAlign=middle;whiteSpace=wrap;rounded=0;fontSize=14;" parent="1" vertex="1">
          <mxGeometry x="752" y="392" width="20" height="20" as="geometry" />
        </mxCell>
        <mxCell id="DZsutp3Jp5KQCfpiCqnF-20" value="1" style="text;html=1;strokeColor=none;fillColor=none;align=center;verticalAlign=middle;whiteSpace=wrap;rounded=0;fontSize=14;" parent="1" vertex="1">
          <mxGeometry x="625" y="395" width="20" height="20" as="geometry" />
        </mxCell>
        <mxCell id="DZsutp3Jp5KQCfpiCqnF-21" value="*" style="text;html=1;strokeColor=none;fillColor=none;align=center;verticalAlign=middle;whiteSpace=wrap;rounded=0;fontSize=14;" parent="1" vertex="1">
          <mxGeometry x="622" y="508" width="17" height="10" as="geometry" />
        </mxCell>
        <mxCell id="DZsutp3Jp5KQCfpiCqnF-24" value="*" style="text;html=1;strokeColor=none;fillColor=none;align=center;verticalAlign=middle;whiteSpace=wrap;rounded=0;fontSize=14;" parent="1" vertex="1">
          <mxGeometry x="1242" y="825" width="20" height="20" as="geometry" />
        </mxCell>
        <mxCell id="DZsutp3Jp5KQCfpiCqnF-25" value="acronym = NOT NULL and UNIQUE&lt;br&gt;" style="text;html=1;strokeColor=none;fillColor=none;align=center;verticalAlign=middle;whiteSpace=wrap;rounded=0;" parent="1" vertex="1">
          <mxGeometry x="420" y="579" width="110" height="20" as="geometry" />
        </mxCell>
        <mxCell id="DZsutp3Jp5KQCfpiCqnF-28" value="*" style="text;html=1;strokeColor=none;fillColor=none;align=center;verticalAlign=middle;whiteSpace=wrap;rounded=0;fontSize=14;" parent="1" vertex="1">
          <mxGeometry x="418.5" y="508" width="6" height="10" as="geometry" />
        </mxCell>
        <mxCell id="yVs6eVd_se5hJnFkdwFp-1" style="rounded=0;orthogonalLoop=1;jettySize=auto;html=1;exitX=0.491;exitY=0.991;exitDx=0;exitDy=0;entryX=0.5;entryY=0;entryDx=0;entryDy=0;endArrow=none;endFill=0;exitPerimeter=0;" edge="1" parent="1" source="wbR98xaUtxmODcnnqOfq-12" target="wbR98xaUtxmODcnnqOfq-38">
          <mxGeometry relative="1" as="geometry" />
        </mxCell>
        <mxCell id="yVs6eVd_se5hJnFkdwFp-17" style="edgeStyle=none;rounded=0;orthogonalLoop=1;jettySize=auto;html=1;exitX=1;exitY=0.5;exitDx=0;exitDy=0;entryX=0;entryY=0.5;entryDx=0;entryDy=0;endArrow=none;endFill=0;" edge="1" parent="1" source="yVs6eVd_se5hJnFkdwFp-14" target="wbR98xaUtxmODcnnqOfq-30">
          <mxGeometry relative="1" as="geometry" />
        </mxCell>
        <mxCell id="yVs6eVd_se5hJnFkdwFp-18" style="edgeStyle=none;rounded=0;orthogonalLoop=1;jettySize=auto;html=1;exitX=0;exitY=0.5;exitDx=0;exitDy=0;endArrow=none;endFill=0;" edge="1" parent="1" source="yVs6eVd_se5hJnFkdwFp-14">
          <mxGeometry relative="1" as="geometry">
            <mxPoint x="848" y="872" as="targetPoint" />
          </mxGeometry>
        </mxCell>
        <mxCell id="yVs6eVd_se5hJnFkdwFp-14" value="" style="rhombus;whiteSpace=wrap;html=1;" vertex="1" parent="1">
          <mxGeometry x="902" y="832" width="80" height="80" as="geometry" />
        </mxCell>
        <mxCell id="yVs6eVd_se5hJnFkdwFp-20" style="edgeStyle=none;rounded=0;orthogonalLoop=1;jettySize=auto;html=1;exitX=0;exitY=0.5;exitDx=0;exitDy=0;endArrow=none;endFill=0;dashed=1;" edge="1" parent="1" source="wbR98xaUtxmODcnnqOfq-48">
          <mxGeometry relative="1" as="geometry">
            <mxPoint x="703" y="658" as="targetPoint" />
          </mxGeometry>
        </mxCell>
        <mxCell id="yVs6eVd_se5hJnFkdwFp-21" value="*" style="text;html=1;strokeColor=none;fillColor=none;align=center;verticalAlign=middle;whiteSpace=wrap;rounded=0;fontSize=14;" vertex="1" parent="1">
          <mxGeometry x="781" y="792" width="4" height="10" as="geometry" />
        </mxCell>
        <mxCell id="yVs6eVd_se5hJnFkdwFp-27" value="1" style="text;html=1;strokeColor=none;fillColor=none;align=center;verticalAlign=middle;whiteSpace=wrap;rounded=0;fontSize=14;" vertex="1" parent="1">
          <mxGeometry x="1080" y="850" width="20" height="20" as="geometry" />
        </mxCell>
        <mxCell id="yVs6eVd_se5hJnFkdwFp-28" value="1" style="text;html=1;strokeColor=none;fillColor=none;align=center;verticalAlign=middle;whiteSpace=wrap;rounded=0;fontSize=14;" vertex="1" parent="1">
          <mxGeometry x="942" y="759" width="20" height="20" as="geometry" />
        </mxCell>
        <mxCell id="yVs6eVd_se5hJnFkdwFp-29" value="*" style="text;html=1;strokeColor=none;fillColor=none;align=center;verticalAlign=middle;whiteSpace=wrap;rounded=0;fontSize=14;" vertex="1" parent="1">
          <mxGeometry x="852" y="850" width="20" height="20" as="geometry" />
        </mxCell>
      </root>
    </mxGraphModel>
  </diagram>
</mxfile>
